<svg width="21" height="21" viewBox="0 0 21 21" fill="none" xmlns="http://www.w3.org/2000/svg">
<path d="M14.875 10.5V2.625C14.875 2.39294 14.7828 2.17038 14.6187 2.00628C14.4546 1.84219 14.2321 1.75 14 1.75H2.625C2.39294 1.75 2.17038 1.84219 2.00628 2.00628C1.84219 2.17038 1.75 2.39294 1.75 2.625V14.875L5.25 11.375H14C14.2321 11.375 14.4546 11.2828 14.6187 11.1187C14.7828 10.9546 14.875 10.7321 14.875 10.5ZM18.375 5.25H16.625V13.125H5.25V14.875C5.25 15.1071 5.34219 15.3296 5.50628 15.4937C5.67038 15.6578 5.89294 15.75 6.125 15.75H15.75L19.25 19.25V6.125C19.25 5.89294 19.1578 5.67038 18.9937 5.50628C18.8296 5.34219 18.6071 5.25 18.375 5.25Z" />
</svg>
