<svg width="30" height="30" viewBox="0 0 30 30" fill="none" xmlns="http://www.w3.org/2000/svg">
<circle cx="15" cy="15" r="15" fill="#733D47"/>
<path d="M20.9 20.39C20.64 19.59 19.89 19 19 19H18V16C18 15.7348 17.8946 15.4804 17.7071 15.2929C17.5196 15.1054 17.2652 15 17 15H11V13H13C13.2652 13 13.5196 12.8946 13.7071 12.7071C13.8946 12.5196 14 12.2652 14 12V10H16C16.5304 10 17.0391 9.78929 17.4142 9.41421C17.7893 9.03914 18 8.53043 18 8V7.59C20.93 8.77 23 11.64 23 15C23 17.08 22.2 18.97 20.9 20.39ZM14 22.93C10.05 22.44 7 19.08 7 15C7 14.38 7.08 13.78 7.21 13.21L12 18V19C12 19.5304 12.2107 20.0391 12.5858 20.4142C12.9609 20.7893 13.4696 21 14 21V22.93ZM15 5C13.6868 5 12.3864 5.25866 11.1732 5.7612C9.95991 6.26375 8.85752 7.00035 7.92893 7.92893C6.05357 9.8043 5 12.3478 5 15C5 17.6522 6.05357 20.1957 7.92893 22.0711C8.85752 22.9997 9.95991 23.7362 11.1732 24.2388C12.3864 24.7413 13.6868 25 15 25C17.6522 25 20.1957 23.9464 22.0711 22.0711C23.9464 20.1957 25 17.6522 25 15C25 13.6868 24.7413 12.3864 24.2388 11.1732C23.7362 9.95991 22.9997 8.85752 22.0711 7.92893C21.1425 7.00035 20.0401 6.26375 18.8268 5.7612C17.6136 5.25866 16.3132 5 15 5Z" fill="#F2D8D5"/>
</svg>
