<?xml version="1.0" standalone="no"?>
<!DOCTYPE svg PUBLIC "-//W3C//DTD SVG 20010904//EN"
 "http://www.w3.org/TR/2001/REC-SVG-20010904/DTD/svg10.dtd">
<svg version="1.0" xmlns="http://www.w3.org/2000/svg"
 width="450.000000pt" height="450.000000pt" viewBox="0 0 450.000000 450.000000"
 preserveAspectRatio="xMidYMid meet">
<metadata>
Created by potrace 1.16, written by Peter Selinger 2001-2019
</metadata>
<g transform="translate(0.000000,450.000000) scale(0.100000,-0.100000)"
fill="#000000" stroke="none">
<path d="M2135 4454 c-154 -15 -245 -27 -280 -34 -191 -43 -238 -55 -318 -84
-230 -83 -361 -150 -542 -274 -135 -93 -195 -145 -330 -283 -472 -485 -691
-1155 -599 -1829 29 -212 114 -490 206 -674 119 -237 254 -421 445 -606 176
-171 333 -285 531 -384 257 -129 450 -187 753 -227 613 -80 1288 142 1747 575
365 343 587 747 671 1222 114 637 -46 1268 -449 1774 -87 108 -271 289 -377
368 -309 233 -663 383 -1033 436 -108 16 -354 27 -425 20z m385 -29 c791 -96
1474 -624 1770 -1370 165 -417 196 -900 85 -1340 -172 -686 -671 -1250 -1333
-1509 -175 -68 -356 -112 -565 -136 -133 -16 -443 -8 -577 15 -876 147 -1568
788 -1780 1647 -47 193 -63 353 -57 578 9 351 77 624 234 933 286 565 802 977
1418 1132 72 19 180 40 240 48 147 20 411 21 565 2z"/>
<path d="M2286 4372 c-6 -10 -36 -170 -36 -194 0 -28 33 -19 40 11 8 36 26 36
33 1 5 -20 12 -30 25 -30 10 0 21 2 23 5 4 3 -10 139 -21 213 -1 6 -59 1 -64
-6z"/>
<path d="M2016 4348 c-10 -17 -13 -42 -9 -95 7 -91 20 -106 86 -97 51 7 54 14
41 83 -6 30 -9 32 -43 29 -35 -3 -36 -2 -39 35 -2 28 0 37 12 37 9 0 16 -9 16
-20 0 -15 7 -20 25 -20 27 0 32 18 15 51 -16 29 -85 27 -104 -3z"/>
<path d="M2501 4284 c-6 -44 -15 -91 -18 -106 -5 -25 -2 -28 20 -28 26 0 37
20 37 68 0 15 5 22 13 19 8 -2 11 -20 9 -50 -3 -38 0 -47 12 -47 9 0 19 0 24
0 13 -1 22 82 11 96 -8 10 -7 18 5 29 20 20 21 59 2 74 -7 6 -33 14 -58 17
l-44 6 -13 -78z"/>
<path d="M1793 4330 c-22 -9 -22 -13 -17 -102 3 -51 7 -99 10 -106 7 -22 29
-7 34 23 7 37 26 43 34 10 6 -25 21 -31 44 -17 9 7 4 31 -25 105 -20 53 -41
97 -47 96 -6 0 -21 -4 -33 -9z"/>
<path d="M1532 4254 c-23 -16 -28 -48 -12 -74 5 -8 28 -24 52 -35 23 -11 44
-28 46 -38 5 -24 -19 -22 -25 3 -6 21 -20 25 -42 11 -11 -7 -11 -13 0 -37 17
-34 39 -40 80 -24 61 26 43 97 -31 126 -27 11 -40 22 -40 35 0 25 17 24 25 -1
7 -21 39 -27 50 -10 4 6 -1 22 -9 35 -19 29 -60 33 -94 9z"/>
<path d="M3057 4118 c-44 -103 -46 -111 -26 -115 12 -3 24 14 44 62 16 36 30
63 32 61 2 -2 -3 -34 -12 -72 -15 -65 -15 -69 2 -82 10 -7 24 -11 32 -10 16 3
94 175 86 189 -14 22 -32 5 -54 -51 -13 -33 -26 -59 -28 -56 -3 3 11 79 23
117 4 14 -31 39 -55 39 -5 0 -25 -37 -44 -82z"/>
<path d="M2071 4089 c-549 -53 -1059 -361 -1363 -823 -223 -338 -333 -760
-300 -1147 35 -409 178 -759 435 -1066 370 -440 973 -693 1539 -644 375 32
686 148 975 365 242 181 431 411 558 678 245 517 243 1091 -5 1605 -54 111
-155 273 -217 348 -79 94 -163 182 -236 243 -388 329 -889 489 -1386 441z
m501 -38 c248 -44 536 -165 737 -309 177 -126 366 -325 486 -511 106 -163 206
-410 245 -601 111 -543 -15 -1079 -355 -1515 -71 -90 -229 -247 -322 -318
-204 -156 -476 -282 -726 -336 -99 -22 -333 -48 -342 -39 -3 3 34 43 82 89
294 281 565 566 691 727 l34 42 -111 0 c-61 0 -111 3 -111 6 0 16 106 174 115
171 5 -2 31 -39 57 -82 27 -43 50 -80 52 -82 5 -6 86 103 86 115 0 5 -15 22
-32 39 -18 16 -152 153 -298 304 -146 151 -335 345 -420 431 l-155 157 -470
-463 -469 -464 27 -41 c32 -48 217 -280 279 -349 67 -75 407 -412 477 -472 35
-30 82 -72 105 -92 l41 -37 -65 -1 c-146 0 -368 38 -530 90 -133 44 -378 167
-489 247 -115 83 -280 238 -367 347 -185 230 -322 530 -376 824 -32 171 -31
478 0 646 48 253 166 533 310 736 87 123 309 346 432 432 245 173 561 294 860
328 125 14 391 5 522 -19z m-224 -2041 c28 -48 52 -91 52 -94 0 -3 -52 -6
-115 -6 -103 0 -134 7 -106 24 5 3 30 42 56 86 26 44 50 80 53 80 4 -1 31 -41
60 -90z m-367 -331 l49 -84 -55 -3 c-30 -2 -81 -2 -114 0 l-59 3 56 92 c32 51
61 88 65 84 5 -5 31 -46 58 -92z m368 2 c28 -46 50 -85 48 -88 -3 -2 -54 -2
-115 -1 l-110 3 56 92 c31 50 60 88 63 85 4 -4 30 -45 58 -91z m378 -26 c15
-27 29 -53 31 -57 2 -5 -46 -8 -107 -8 -61 0 -111 2 -111 5 0 3 25 46 56 96
l56 91 24 -39 c13 -21 36 -60 51 -88z m-1103 -281 l54 -89 -110 -3 c-61 -1
-113 -1 -115 2 -3 3 21 46 52 96 32 50 59 89 61 87 2 -2 28 -44 58 -93z m356
-3 c28 -46 49 -85 47 -88 -3 -2 -54 -2 -115 -1 l-111 3 57 92 c31 51 60 89 64
85 4 -4 30 -45 58 -91z m365 8 c31 -50 54 -93 52 -95 -2 -3 -54 -3 -115 -2
l-111 3 57 92 c31 51 58 93 59 93 1 0 27 -41 58 -91z m370 -8 c25 -43 45 -81
45 -84 0 -4 -49 -7 -110 -7 -60 0 -110 3 -110 6 0 3 24 45 53 94 38 64 55 85
64 78 7 -5 33 -45 58 -87z m-570 -197 c51 -26 77 -73 64 -116 -22 -79 -90
-110 -251 -115 -79 -3 -118 -1 -118 6 0 6 5 11 10 11 6 0 10 43 10 110 0 103
-1 110 -20 110 -11 0 -20 5 -20 11 0 8 44 10 143 7 120 -2 148 -6 182 -24z
m348 11 c18 -7 24 -55 7 -55 -5 0 -10 7 -10 15 0 32 -101 47 -150 22 -31 -16
-38 -46 -14 -64 10 -7 43 -14 73 -14 85 -2 114 -11 130 -41 20 -36 4 -69 -44
-92 -29 -14 -57 -17 -125 -14 -49 1 -92 6 -95 10 -10 9 3 58 14 58 6 0 11 -10
13 -22 3 -21 9 -23 73 -26 84 -4 115 10 115 49 0 30 -6 32 -115 44 -75 8 -105
26 -105 64 0 30 20 53 60 70 25 11 141 8 173 -4z m237 5 c0 -4 -9 -10 -20 -13
-18 -5 -20 -14 -20 -110 0 -98 1 -105 23 -115 18 -9 7 -11 -58 -11 -44 1 -73
3 -65 6 32 11 40 37 40 130 0 90 -1 93 -25 99 -49 12 -24 24 50 23 41 -1 75
-5 75 -9z m-426 -333 c32 -42 35 -98 6 -127 -37 -37 -85 -18 -106 41 -7 19
-13 27 -13 19 -1 -8 6 -28 14 -44 19 -36 14 -42 -15 -18 -12 10 -26 36 -30 58
-7 35 -8 36 -9 9 0 -17 6 -41 15 -53 9 -13 13 -26 10 -30 -14 -13 -45 35 -59
91 -12 51 -12 57 1 57 9 0 24 -8 35 -17 19 -18 20 -17 13 10 -6 26 -4 28 16
25 20 -3 23 -8 21 -38 -3 -31 -1 -32 8 -15 16 27 51 65 60 65 4 0 19 -15 33
-33z"/>
<path d="M2254 3450 c55 -10 96 -43 96 -77 0 -13 5 -23 10 -23 6 0 10 -5 10
-11 0 -8 -5 -7 -16 2 -14 11 -18 10 -30 -6 -8 -10 -12 -27 -9 -36 4 -12 -2
-22 -17 -30 -29 -15 -71 -59 -64 -67 3 -3 17 7 30 21 14 15 30 27 36 27 19 0
48 -42 38 -54 -28 -34 -58 -89 -53 -97 14 -22 -14 -7 -29 16 -9 14 -12 25 -6
25 5 0 10 9 10 20 0 11 -4 20 -10 20 -5 0 -10 -7 -10 -15 0 -13 -3 -13 -20 -3
-11 7 -20 23 -20 36 0 15 7 26 20 29 22 6 27 29 8 35 -39 12 -93 -14 -104 -49
0 -2 -12 3 -27 10 -40 18 -35 48 11 69 l37 18 -32 -3 c-50 -5 -42 35 21 102
26 28 27 32 8 22 -45 -24 -79 -93 -85 -175 -6 -82 9 -131 52 -170 27 -24 26
-32 -3 -48 -14 -7 -39 -31 -56 -53 -26 -32 -29 -41 -16 -43 9 -2 16 -9 16 -15
1 -7 11 6 23 28 l22 40 6 -40 c3 -22 7 -32 8 -21 1 14 4 16 14 7 11 -8 18 -6
31 8 12 13 14 21 6 26 -17 11 8 35 37 35 13 0 26 -6 29 -14 3 -8 20 -13 44
-12 37 1 39 3 45 37 3 19 5 41 3 49 -2 7 3 15 11 18 24 8 6 -96 -20 -125 -13
-12 -19 -26 -15 -30 9 -9 43 32 57 69 12 31 37 44 45 23 4 -9 -7 -28 -25 -47
-19 -19 -27 -34 -20 -37 6 -2 22 9 35 25 22 27 25 28 38 11 19 -24 26 -3 19
52 -8 58 9 52 42 -15 15 -30 29 -53 32 -51 2 3 -13 38 -34 78 -21 41 -39 77
-41 82 -2 4 4 7 12 7 9 0 21 -11 28 -25 6 -13 14 -22 19 -20 4 3 12 -7 17 -22
9 -25 10 -26 11 -5 1 12 5 22 9 22 11 0 42 -55 42 -74 0 -9 5 -16 11 -16 14 0
4 43 -18 76 -20 31 -115 85 -145 83 -55 -5 -57 -3 -32 48 27 52 31 95 11 112
-8 6 -19 28 -25 49 -18 60 -59 92 -123 97 l-54 4 49 -9z"/>
<path d="M3187 3296 c7 -72 -10 -74 -38 -6 -10 25 -18 39 -18 32 -1 -7 6 -29
14 -49 l15 -35 -40 -39 c-22 -22 -37 -39 -33 -39 4 0 2 -5 -4 -11 -9 -9 -23
-9 -58 1 -25 7 -48 10 -51 7 -3 -3 21 -11 53 -18 48 -11 54 -14 33 -20 l-25
-7 25 -3 c14 -1 -4 -5 -40 -9 l-65 -7 65 -2 c49 -2 59 -5 40 -11 l-25 -8 24
-1 c16 -1 21 -5 17 -16 -3 -8 -1 -15 5 -15 6 0 8 -4 5 -9 -3 -5 1 -11 8 -14 8
-3 20 -16 26 -28 7 -12 8 -19 2 -15 -6 3 -14 1 -18 -5 -4 -8 -3 -9 4 -5 19 12
14 -5 -14 -41 -14 -18 -21 -33 -17 -33 4 0 21 18 36 40 24 34 31 38 48 30 10
-6 19 -16 19 -23 0 -7 4 -6 10 3 6 10 8 -3 5 -40 l-4 -55 9 48 c9 52 20 72 21
41 0 -18 1 -18 9 1 6 15 9 6 11 -35 l2 -55 6 55 c6 56 19 69 49 47 9 -7 11 -6
6 7 -4 10 0 18 10 22 9 3 13 11 9 18 -3 6 7 0 23 -15 50 -44 71 -56 42 -24
-18 20 -24 35 -19 44 7 11 13 11 32 -3 13 -9 28 -16 34 -16 5 0 -4 9 -21 20
-31 20 -70 18 -57 -3 4 -6 1 -7 -7 -2 -11 7 -10 10 1 19 8 6 15 19 16 29 0 9
1 24 2 32 1 11 15 15 59 17 l57 1 -60 7 c-33 4 -51 8 -40 9 l20 2 -20 9 c-14
6 -15 9 -5 10 10 1 9 4 -5 10 -14 6 -15 9 -5 10 11 1 9 4 -4 9 -24 9 -31 42
-8 34 13 -4 14 -3 4 5 -11 7 -7 14 18 32 17 12 29 25 26 27 -3 3 -22 -9 -42
-27 -33 -29 -39 -31 -49 -16 -7 8 -15 13 -18 9 -4 -3 -9 2 -13 11 -3 9 -10 14
-14 11 -13 -8 -22 31 -15 72 5 34 4 35 -6 13 -6 -14 -9 -40 -7 -57 5 -39 1
-42 -12 -10 l-9 22 0 -22 c-2 -42 -21 -23 -21 20 0 23 -5 49 -10 57 -6 9 -7
-6 -3 -44z m104 -135 c21 -22 29 -39 29 -66 0 -51 -44 -95 -95 -95 -83 0 -127
105 -69 164 38 38 95 36 135 -3z"/>
<path d="M1870 2829 c-310 -18 -680 -75 -913 -140 l-37 -10 6 -57 c11 -103 54
-345 79 -443 44 -172 156 -479 176 -479 4 0 14 8 21 19 7 10 193 202 414 427
500 510 658 673 662 685 4 11 -213 10 -408 -2z"/>
<path d="M2290 2833 c0 -4 33 -41 73 -82 39 -42 148 -157 242 -256 93 -99 215
-227 270 -285 55 -58 131 -139 170 -180 171 -181 310 -325 318 -328 19 -9 108
225 152 398 35 139 92 562 79 579 -9 11 -400 77 -629 105 -176 22 -276 31
-597 51 -43 2 -78 1 -78 -2z"/>
<path d="M2218 2637 c-14 -12 -31 -32 -37 -44 -50 -99 86 -210 174 -141 63 49
66 127 8 178 -43 38 -104 41 -145 7z"/>
<path d="M1920 2373 c-66 -59 -43 -169 40 -194 49 -15 85 -6 121 31 24 24 29
37 29 77 -1 73 -43 113 -119 113 -30 0 -49 -7 -71 -27z"/>
<path d="M2500 2371 c-38 -37 -47 -75 -29 -124 28 -80 135 -101 192 -37 22 24
27 40 27 79 0 43 -4 52 -35 80 -49 43 -114 44 -155 2z"/>
<path d="M1624 2096 c-28 -28 -34 -41 -34 -78 0 -50 18 -82 60 -103 87 -45
180 22 167 119 -8 59 -52 96 -113 96 -39 0 -51 -5 -80 -34z"/>
<path d="M2764 2096 c-38 -38 -45 -86 -20 -135 57 -109 216 -62 216 63 0 26
-9 44 -34 70 -29 31 -39 36 -81 36 -40 0 -52 -5 -81 -34z"/>
<path d="M1421 1857 c-62 -31 -84 -117 -45 -170 55 -75 176 -58 204 28 16 49
4 89 -36 125 -38 33 -81 39 -123 17z"/>
<path d="M3035 1848 c-105 -60 -65 -218 55 -218 121 0 160 162 53 218 -27 15
-82 15 -108 0z"/>
<path d="M1920 1069 l0 -112 77 7 c110 9 152 40 153 112 0 68 -61 104 -177
104 l-53 0 0 -111z"/>
<path d="M1154 4076 c-19 -14 -18 -16 10 -98 41 -119 45 -124 63 -105 12 11
12 19 4 35 -16 30 7 41 29 15 13 -17 20 -19 37 -9 20 11 19 14 -39 94 -33 45
-65 82 -72 82 -7 0 -21 -6 -32 -14z"/>
<path d="M3320 4045 c-14 -17 -16 -50 -5 -112 6 -36 5 -43 -9 -43 -19 0 -20 4
-5 32 9 16 8 23 -2 29 -23 14 -35 10 -47 -17 -14 -29 -3 -57 28 -74 63 -34
110 26 80 104 -10 28 -4 56 12 56 6 0 8 -11 4 -24 -4 -15 0 -28 10 -37 14 -11
18 -10 30 6 21 28 17 51 -12 74 -31 25 -67 27 -84 6z"/>
<path d="M932 3920 l-42 -30 62 -80 c35 -44 68 -80 74 -80 16 0 74 60 74 77 0
31 -95 143 -121 143 -3 0 -25 -14 -47 -30z"/>
<path d="M773 3783 c-5 -12 6 -28 35 -54 57 -50 53 -57 -10 -15 -53 36 -81 36
-95 0 -6 -17 122 -154 144 -154 34 0 23 27 -32 77 -32 29 -54 53 -49 53 5 0
36 -18 69 -40 l59 -39 23 21 24 22 -73 73 c-40 40 -76 73 -81 73 -4 0 -11 -8
-14 -17z"/>
<path d="M570 3555 c-12 -23 -9 -29 51 -99 35 -41 69 -75 75 -75 19 -1 24 26
8 39 -18 15 -18 40 -1 40 7 0 18 -5 25 -12 9 -9 16 -8 30 6 16 17 16 19 -13
42 -16 13 -34 24 -38 24 -5 0 -28 14 -52 30 -53 36 -68 37 -85 5z"/>
<path d="M3928 3399 c-84 -56 -96 -79 -62 -127 22 -32 49 -28 126 19 76 46 81
51 72 73 -9 23 -18 21 -95 -29 -77 -50 -79 -51 -79 -32 0 6 32 32 70 57 38 25
70 48 70 51 0 3 -6 13 -12 22 -12 15 -20 12 -90 -34z"/>
<path d="M444 3376 c-8 -20 -12 -16 56 -55 63 -35 54 -40 -22 -11 l-53 20 -18
-21 c-10 -12 -16 -27 -14 -33 5 -17 166 -108 177 -101 22 14 7 32 -55 64 -35
19 -63 37 -60 39 2 2 36 -8 76 -22 40 -14 74 -26 75 -26 2 0 10 12 18 27 l14
27 -82 49 c-101 61 -104 63 -112 43z"/>
<path d="M304 3108 c-9 -17 -12 -34 -7 -38 13 -12 162 -110 166 -110 3 0 8 7
11 16 4 11 -1 22 -14 31 -30 21 -25 36 11 31 22 -4 33 0 40 14 11 21 7 23
-119 63 l-73 23 -15 -30z"/>
<path d="M4200 2812 c-83 -18 -105 -38 -96 -87 9 -48 34 -56 111 -38 99 23
121 47 94 107 -15 32 -32 35 -109 18z"/>
<path d="M162 2658 c-2 -33 -1 -33 87 -65 49 -18 94 -33 100 -33 20 0 12 38
-9 43 -11 3 -20 13 -20 22 0 12 7 16 28 13 21 -2 28 2 30 18 3 18 -4 22 -44
28 -26 3 -74 6 -108 6 l-62 0 -2 -32z"/>
<path d="M4250 2574 c-47 -7 -91 -13 -97 -14 -7 0 -13 -10 -13 -21 0 -18 4
-20 33 -16 17 3 55 9 82 12 l50 6 -75 -29 c-71 -28 -75 -30 -72 -58 2 -16 5
-30 6 -31 4 -4 198 26 204 31 2 3 2 11 -1 19 -4 11 -18 12 -63 6 -32 -4 -60
-7 -61 -5 -2 2 24 13 57 25 33 12 60 27 60 34 0 21 -12 57 -19 56 -3 -1 -44
-7 -91 -15z"/>
<path d="M142 2444 c-5 -11 -12 -37 -13 -59 l-4 -40 103 -10 c57 -6 105 -9
107 -6 11 10 4 89 -9 106 -12 16 -29 20 -94 23 -70 4 -81 2 -90 -14z"/>
<path d="M4182 2304 c-45 -31 -19 -114 37 -114 12 0 41 18 66 41 24 22 49 38
55 34 15 -9 2 -25 -21 -25 -15 0 -20 -6 -17 -22 2 -18 9 -22 27 -20 36 4 51
21 51 58 0 73 -58 84 -118 23 -27 -29 -45 -40 -57 -36 -21 9 -10 27 16 27 14
0 19 7 19 25 0 29 -24 33 -58 9z"/>
<path d="M291 1745 c-46 -14 -86 -27 -89 -29 -11 -12 13 -91 28 -91 10 0 14 8
12 26 -2 20 2 28 20 33 38 10 48 7 48 -15 0 -14 5 -19 18 -17 12 2 16 11 14
29 -4 37 35 48 44 13 6 -25 34 -34 34 -11 0 30 -22 87 -33 86 -7 0 -50 -11
-96 -24z"/>
<path d="M4106 1741 c-2 -3 -6 -18 -9 -32 -6 -25 -2 -28 83 -67 101 -47 106
-48 114 -27 4 10 -3 20 -19 27 -37 16 -33 42 4 35 24 -5 31 -2 36 14 4 11 5
22 2 25 -7 7 -208 31 -211 25z"/>
<path d="M388 1553 c-9 -10 -19 -29 -23 -43 -9 -31 -35 -61 -46 -54 -15 9 -10
22 11 29 21 7 25 22 11 43 -6 10 -13 11 -35 1 -34 -16 -42 -48 -22 -88 30 -56
103 -31 121 42 8 30 45 58 45 33 0 -7 -7 -16 -15 -20 -19 -7 -20 -35 -1 -42
25 -10 56 15 56 44 0 62 -65 96 -102 55z"/>
<path d="M3972 1387 c-7 -7 -18 -28 -25 -47 l-14 -33 89 -43 c49 -24 93 -44
98 -44 13 0 41 81 35 101 -8 23 -113 79 -148 79 -14 0 -29 -6 -35 -13z"/>
<path d="M3875 1220 c-9 -15 0 -25 52 -59 52 -35 42 -41 -17 -11 -50 26 -65
25 -85 -2 -18 -26 -17 -28 95 -106 49 -34 65 -41 71 -30 13 20 13 20 -51 63
-32 21 -58 41 -56 42 3 4 90 -31 117 -46 13 -7 23 -3 40 15 12 13 20 26 17 29
-13 14 -163 115 -170 115 -4 0 -10 -4 -13 -10z"/>
<path d="M563 1142 c-45 -31 -82 -61 -83 -67 0 -19 61 -75 82 -75 19 0 114 62
130 85 15 20 7 51 -19 82 l-28 32 -82 -57z"/>
<path d="M3490 785 c-32 -33 -32 -34 -14 -57 53 -67 110 -128 120 -128 14 0
64 53 64 68 0 17 -15 15 -30 -3 -17 -21 -25 -19 -45 11 -16 24 -16 27 1 45 15
17 15 19 0 25 -9 3 -23 1 -31 -6 -12 -10 -18 -10 -30 0 -14 12 -13 15 5 35 17
18 18 24 7 33 -11 9 -21 4 -47 -23z"/>
<path d="M1029 711 c-35 -36 -37 -66 -5 -83 24 -13 24 -13 5 -36 -10 -13 -23
-21 -29 -17 -8 5 -7 11 1 21 10 12 9 18 -4 31 -13 13 -19 14 -31 3 -24 -19
-19 -56 11 -80 38 -30 61 -22 110 38 58 71 64 99 29 129 -35 30 -51 29 -87 -6z"/>
<path d="M3318 658 c-21 -12 -38 -26 -38 -30 0 -5 25 -47 56 -93 49 -75 58
-84 73 -73 9 7 18 13 20 15 2 1 -8 18 -23 37 -30 40 -32 46 -12 46 8 0 24 -13
36 -30 23 -32 39 -37 57 -19 9 9 4 22 -19 50 -17 22 -38 39 -46 39 -9 0 -12 6
-8 16 8 22 -20 64 -42 64 -9 0 -34 -10 -54 -22z"/>
<path d="M1212 583 c-50 -73 -66 -113 -56 -140 11 -33 56 -53 82 -37 9 6 26
26 36 44 l20 33 -28 23 c-22 20 -25 27 -16 44 15 29 34 25 26 -5 -9 -34 28
-55 44 -26 16 31 12 48 -16 70 -37 29 -69 27 -92 -6z"/>
<path d="M3122 544 c-29 -20 -28 -57 4 -119 37 -71 57 -86 95 -73 50 17 56 46
25 114 -44 95 -73 114 -124 78z"/>
<path d="M1395 428 c-19 -40 -35 -78 -35 -84 0 -21 52 -55 79 -52 21 2 33 16
59 67 49 98 39 140 -36 141 -31 0 -35 -4 -67 -72z"/>
<path d="M2722 392 c-10 -7 -10 -29 -1 -110 10 -89 14 -102 30 -102 14 0 19 7
19 30 0 35 25 42 35 10 7 -21 21 -25 42 -12 9 5 1 33 -29 100 -33 75 -44 92
-62 92 -11 0 -27 -4 -34 -8z"/>
<path d="M1795 378 c-8 -24 -45 -176 -45 -186 0 -6 23 -13 51 -17 63 -9 82 6
84 65 0 22 6 45 13 52 19 19 14 56 -10 72 -36 22 -87 30 -93 14z"/>
<path d="M2502 353 c-23 -9 -30 -46 -21 -117 11 -90 23 -102 86 -90 l48 9 -3
45 c-4 54 -9 60 -44 53 -26 -5 -41 -33 -18 -33 6 0 10 -11 10 -25 0 -34 -17
-32 -24 3 -17 91 -17 122 -2 122 9 0 16 -9 16 -20 0 -13 7 -20 20 -20 28 0 35
25 16 55 -16 24 -50 32 -84 18z"/>
<path d="M2036 333 c-19 -63 -46 -170 -46 -180 0 -25 38 -14 44 13 8 32 30 26
34 -9 3 -20 9 -27 26 -27 21 0 22 2 18 103 -3 60 -9 105 -16 109 -20 14 -55 8
-60 -9z"/>
<path d="M2232 233 c3 -93 5 -108 21 -111 15 -3 17 6 18 70 1 76 5 73 29 -19
10 -38 14 -43 40 -43 l30 0 0 105 c0 98 -1 105 -20 105 -18 0 -20 -7 -21 -67
l-1 -68 -16 65 c-16 62 -18 65 -50 68 l-33 3 3 -108z"/>
</g>
</svg>
