<svg width="21" height="21" viewBox="0 0 21 21" fill="none" xmlns="http://www.w3.org/2000/svg">
<path d="M10.5 7.875C9.1 7.875 7.74375 8.09375 6.475 8.505V11.2175C6.475 11.5675 6.27375 11.865 5.985 12.005C5.1275 12.4338 4.34875 12.985 3.64875 13.6238C3.5 13.7813 3.28125 13.8775 3.0625 13.8775C2.8 13.8775 2.58125 13.7725 2.42375 13.615L0.25375 11.445C0.09625 11.2875 0 11.0688 0 10.8325C0 10.5875 0.09625 10.3688 0.25375 10.2113C2.9225 7.67375 6.5275 6.125 10.5 6.125C14.4725 6.125 18.0775 7.67375 20.7463 10.2113C20.9037 10.3688 21 10.5875 21 10.8325C21 11.0688 20.9037 11.2875 20.7463 11.445L18.5763 13.615C18.4187 13.7725 18.2 13.8775 17.9375 13.8775C17.7188 13.8775 17.5 13.7813 17.3425 13.6238C16.6512 12.985 15.8725 12.4338 15.015 12.005C14.7262 11.865 14.525 11.5675 14.525 11.2175V8.505C13.2563 8.09375 11.9 7.875 10.5 7.875Z" fill="black"/>
</svg>
