<svg width="13" height="13" viewBox="0 0 13 13" fill="none" xmlns="http://www.w3.org/2000/svg">
<path d="M12.5 10.9375V1.5625C12.5 1.1481 12.3354 0.750671 12.0424 0.457646C11.7493 0.16462 11.3519 0 10.9375 0H1.5625C1.1481 0 0.750671 0.16462 0.457646 0.457646C0.16462 0.750671 0 1.1481 0 1.5625V10.9375C0 11.3519 0.16462 11.7493 0.457646 12.0424C0.750671 12.3354 1.1481 12.5 1.5625 12.5H10.9375C11.3519 12.5 11.7493 12.3354 12.0424 12.0424C12.3354 11.7493 12.5 11.3519 12.5 10.9375ZM3.90625 7.8125L5.49219 9.92969L7.8125 7.03125L10.9375 10.9375H1.5625L3.90625 7.8125Z" fill="#BF9B9B" fill-opacity="0.75"/>
</svg>
