<svg width="19" height="20" viewBox="0 0 19 20" fill="none" xmlns="http://www.w3.org/2000/svg">
<path d="M18.9999 4.58V16.67C18.9999 17.5532 18.6491 18.4002 18.0246 19.0247C17.4001 19.6492 16.5531 20 15.6699 20H9.57992C8.67992 20 7.82992 19.64 7.20992 19L0.669922 12.36C0.669922 12.36 1.71992 11.33 1.74992 11.32C1.92992 11.16 2.15992 11.07 2.40992 11.07C2.58992 11.07 2.75992 11.12 2.90992 11.21C2.93992 11.22 6.49992 13.26 6.49992 13.26V3.33C6.49992 2.99848 6.63162 2.68054 6.86604 2.44612C7.10046 2.2117 7.4184 2.08 7.74992 2.08C8.08144 2.08 8.39938 2.2117 8.63381 2.44612C8.86823 2.68054 8.99992 2.99848 8.99992 3.33V9.17H9.82992V1.25C9.82992 0.918479 9.96162 0.600537 10.196 0.366117C10.4305 0.131696 10.7484 0 11.0799 0C11.7799 0 12.3299 0.56 12.3299 1.25V9.17H13.1699V2.08C13.1699 1.39 13.7199 0.83 14.4199 0.83C14.7514 0.83 15.0694 0.961696 15.3038 1.19612C15.5382 1.43054 15.6699 1.74848 15.6699 2.08V9.17H16.4999V4.58C16.4999 4.24848 16.6316 3.93054 16.866 3.69612C17.1005 3.4617 17.4184 3.33 17.7499 3.33C18.0814 3.33 18.3994 3.4617 18.6338 3.69612C18.8682 3.93054 18.9999 4.24848 18.9999 4.58Z" fill="white"/>
</svg>
