<svg width="132" height="46" viewBox="0 0 132 46" fill="none" xmlns="http://www.w3.org/2000/svg">
<rect width="132" height="46" rx="8" fill="#EF3333"/>
<path d="M74.5366 26.5791V28H67.9741V17.4312H69.6147V26.5791H74.5366ZM80.125 21.9868C79.7783 21.6157 79.3315 21.4302 78.7847 21.4302C78.2378 21.4302 77.7837 21.6182 77.4224 21.9941C77.061 22.3652 76.8608 22.8462 76.8218 23.437H80.6743C80.6548 22.8413 80.4717 22.3579 80.125 21.9868ZM80.667 25.7368H82.1685C82.0562 26.4448 81.6948 27.0234 81.0845 27.4727C80.4741 27.9219 79.7295 28.1465 78.8506 28.1465C77.7227 28.1465 76.834 27.7925 76.1846 27.0845C75.54 26.3716 75.2178 25.4048 75.2178 24.1841C75.2178 22.9731 75.54 21.999 76.1846 21.2617C76.834 20.5244 77.7007 20.1558 78.7847 20.1558C79.8491 20.1558 80.6938 20.5049 81.3188 21.2031C81.9438 21.8965 82.2563 22.8291 82.2563 24.001V24.543H76.8145V24.6382C76.8145 25.312 77.0024 25.8516 77.3784 26.2568C77.7544 26.6621 78.2573 26.8647 78.8872 26.8647C79.3315 26.8647 79.7124 26.7622 80.0298 26.5571C80.3472 26.3521 80.5596 26.0786 80.667 25.7368ZM86.1821 26.8794C86.7388 26.8794 87.2051 26.7109 87.5811 26.374C87.9619 26.0322 88.1523 25.6123 88.1523 25.1143V24.5063L86.2554 24.6235C85.7817 24.6577 85.4155 24.7749 85.1567 24.9751C84.9028 25.1704 84.7759 25.4341 84.7759 25.7661C84.7759 26.103 84.9028 26.374 85.1567 26.5791C85.4155 26.7793 85.7573 26.8794 86.1821 26.8794ZM85.7427 28.1318C84.9858 28.1318 84.3682 27.917 83.8896 27.4873C83.416 27.0576 83.1792 26.4985 83.1792 25.8101C83.1792 25.1362 83.4282 24.6016 83.9263 24.2061C84.4243 23.8057 85.1299 23.5811 86.043 23.5322L88.1523 23.4077V22.8145C88.1523 22.3848 88.0156 22.0503 87.7422 21.811C87.4688 21.5669 87.0903 21.4448 86.6069 21.4448C86.1577 21.4448 85.7915 21.5449 85.5083 21.7451C85.23 21.9453 85.0542 22.2212 84.981 22.5728H83.4868C83.5308 21.8599 83.8384 21.2788 84.4097 20.8296C84.981 20.3804 85.7329 20.1558 86.6655 20.1558C87.5981 20.1558 88.3403 20.3853 88.8921 20.8442C89.4487 21.3032 89.7271 21.9185 89.7271 22.6899V28H88.2109V26.7329H88.1743C87.9546 27.1577 87.6201 27.4971 87.1709 27.751C86.7266 28.0049 86.2505 28.1318 85.7427 28.1318ZM97.8423 20.2949L95.0811 28H93.3818L90.606 20.2949H92.2905L94.2241 26.4546H94.2534L96.187 20.2949H97.8423ZM103.094 21.9868C102.747 21.6157 102.3 21.4302 101.753 21.4302C101.207 21.4302 100.752 21.6182 100.391 21.9941C100.03 22.3652 99.8296 22.8462 99.7905 23.437H103.643C103.624 22.8413 103.44 22.3579 103.094 21.9868ZM103.636 25.7368H105.137C105.025 26.4448 104.664 27.0234 104.053 27.4727C103.443 27.9219 102.698 28.1465 101.819 28.1465C100.691 28.1465 99.8027 27.7925 99.1533 27.0845C98.5088 26.3716 98.1865 25.4048 98.1865 24.1841C98.1865 22.9731 98.5088 21.999 99.1533 21.2617C99.8027 20.5244 100.669 20.1558 101.753 20.1558C102.818 20.1558 103.663 20.5049 104.288 21.2031C104.913 21.8965 105.225 22.8291 105.225 24.001V24.543H99.7832V24.6382C99.7832 25.312 99.9712 25.8516 100.347 26.2568C100.723 26.6621 101.226 26.8647 101.856 26.8647C102.3 26.8647 102.681 26.7622 102.999 26.5571C103.316 26.3521 103.528 26.0786 103.636 25.7368Z" fill="white"/>
<path d="M38 18.75C35.7333 18.75 33.5375 19.1042 31.4833 19.77V24.1617C31.4833 24.7284 31.1575 25.21 30.69 25.4367C29.3017 26.1309 28.0408 27.0234 26.9075 28.0575C26.6667 28.3125 26.3125 28.4684 25.9583 28.4684C25.5333 28.4684 25.1792 28.2984 24.9242 28.0434L21.4108 24.53C21.1558 24.275 21 23.9209 21 23.5384C21 23.1417 21.1558 22.7875 21.4108 22.5325C25.7317 18.4242 31.5683 15.9167 38 15.9167C44.4317 15.9167 50.2683 18.4242 54.5892 22.5325C54.8442 22.7875 55 23.1417 55 23.5384C55 23.9209 54.8442 24.275 54.5892 24.53L51.0758 28.0434C50.8208 28.2984 50.4667 28.4684 50.0417 28.4684C49.6875 28.4684 49.3333 28.3125 49.0783 28.0575C47.9592 27.0234 46.6983 26.1309 45.31 25.4367C44.8425 25.21 44.5167 24.7284 44.5167 24.1617V19.77C42.4625 19.1042 40.2667 18.75 38 18.75Z" fill="white"/>
</svg>
