<svg width="32" height="19" viewBox="0 0 32 19" fill="none" xmlns="http://www.w3.org/2000/svg">
<path d="M16 0C17.2377 0 18.4247 0.483189 19.2998 1.34327C20.175 2.20335 20.6667 3.36987 20.6667 4.58621C20.6667 5.80255 20.175 6.96906 19.2998 7.82914C18.4247 8.68923 17.2377 9.17241 16 9.17241C14.7623 9.17241 13.5753 8.68923 12.7002 7.82914C11.825 6.96906 11.3333 5.80255 11.3333 4.58621C11.3333 3.36987 11.825 2.20335 12.7002 1.34327C13.5753 0.483189 14.7623 0 16 0ZM6.66667 3.27586C7.41333 3.27586 8.10667 3.47241 8.70667 3.82621C8.50667 5.7 9.06667 7.56069 10.2133 9.01517C9.54667 10.2731 8.21333 11.1379 6.66667 11.1379C5.6058 11.1379 4.58839 10.7238 3.83824 9.98656C3.08809 9.24935 2.66667 8.24947 2.66667 7.2069C2.66667 6.16432 3.08809 5.16445 3.83824 4.42724C4.58839 3.69002 5.6058 3.27586 6.66667 3.27586ZM25.3333 3.27586C26.3942 3.27586 27.4116 3.69002 28.1618 4.42724C28.9119 5.16445 29.3333 6.16432 29.3333 7.2069C29.3333 8.24947 28.9119 9.24935 28.1618 9.98656C27.4116 10.7238 26.3942 11.1379 25.3333 11.1379C23.7867 11.1379 22.4533 10.2731 21.7867 9.01517C22.9333 7.56069 23.4933 5.7 23.2933 3.82621C23.8933 3.47241 24.5867 3.27586 25.3333 3.27586ZM7.33333 16.7069C7.33333 13.9945 11.2133 11.7931 16 11.7931C20.7867 11.7931 24.6667 13.9945 24.6667 16.7069V19H7.33333V16.7069ZM0 19V17.0345C0 15.2131 2.52 13.68 5.93333 13.2345C5.14667 14.1255 4.66667 15.3572 4.66667 16.7069V19H0ZM32 19H27.3333V16.7069C27.3333 15.3572 26.8533 14.1255 26.0667 13.2345C29.48 13.68 32 15.2131 32 17.0345V19Z" fill=""/>
</svg>
