<svg width="21" height="21" viewBox="0 0 21 21" fill="" xmlns="http://www.w3.org/2000/svg">
<path d="M16.625 9.625C16.625 10.6663 16.3275 11.6375 15.8375 12.495L14.7613 11.4187C14.9975 10.8762 15.1375 10.2725 15.1375 9.625H16.625ZM13.125 9.765L7.875 4.5325V4.375C7.875 3.67881 8.15156 3.01113 8.64384 2.51884C9.13613 2.02656 9.80381 1.75 10.5 1.75C11.1962 1.75 11.8639 2.02656 12.3562 2.51884C12.8484 3.01113 13.125 3.67881 13.125 4.375V9.625V9.765ZM3.73625 2.625L18.375 17.2638L17.2638 18.375L13.5975 14.7087C12.9237 15.1112 12.1713 15.3825 11.375 15.505V18.375H9.625V15.505C6.755 15.0762 4.375 12.6088 4.375 9.625H5.8625C5.8625 12.25 8.085 14.0875 10.5 14.0875C11.2087 14.0875 11.9 13.9212 12.5213 13.6325L11.0687 12.18L10.5 12.25C9.80381 12.25 9.13613 11.9734 8.64384 11.4812C8.15156 10.9889 7.875 10.3212 7.875 9.625V8.995L2.625 3.73625L3.73625 2.625Z" />
</svg>
