<svg width="21" height="21" viewBox="0 0 21 21" fill="none" xmlns="http://www.w3.org/2000/svg">
<path d="M10.5 1.75C11.1962 1.75 11.8639 2.02656 12.3562 2.51884C12.8484 3.01113 13.125 3.67881 13.125 4.375V9.625C13.125 10.3212 12.8484 10.9889 12.3562 11.4812C11.8639 11.9734 11.1962 12.25 10.5 12.25C9.80381 12.25 9.13613 11.9734 8.64384 11.4812C8.15156 10.9889 7.875 10.3212 7.875 9.625V4.375C7.875 3.67881 8.15156 3.01113 8.64384 2.51884C9.13613 2.02656 9.80381 1.75 10.5 1.75ZM16.625 9.625C16.625 12.7137 14.3413 15.26 11.375 15.6888V18.375H9.625V15.6888C6.65875 15.26 4.375 12.7137 4.375 9.625H6.125C6.125 10.7853 6.58594 11.8981 7.40641 12.7186C8.22688 13.5391 9.33968 14 10.5 14C11.6603 14 12.7731 13.5391 13.5936 12.7186C14.4141 11.8981 14.875 10.7853 14.875 9.625H16.625Z" />
</svg>
