<svg width="13" height="13" viewBox="0 0 13 13" fill="none" xmlns="http://www.w3.org/2000/svg">
<path d="M9 4.625V3.375H6.5V6.8125C6.2375 6.61875 5.91875 6.5 5.5625 6.5C5.1481 6.5 4.75067 6.66462 4.45765 6.95765C4.16462 7.25067 4 7.6481 4 8.0625C4 8.4769 4.16462 8.87433 4.45765 9.16735C4.75067 9.46038 5.1481 9.625 5.5625 9.625C5.9769 9.625 6.37433 9.46038 6.66735 9.16735C6.96038 8.87433 7.125 8.4769 7.125 8.0625V4.625H9ZM6.5 0.25C7.32076 0.25 8.13349 0.411661 8.89177 0.725753C9.65006 1.03984 10.3391 1.50022 10.9194 2.08058C11.4998 2.66095 11.9602 3.34994 12.2742 4.10823C12.5883 4.86651 12.75 5.67924 12.75 6.5C12.75 8.1576 12.0915 9.74732 10.9194 10.9194C9.74732 12.0915 8.1576 12.75 6.5 12.75C5.67924 12.75 4.86651 12.5883 4.10823 12.2742C3.34994 11.9602 2.66095 11.4998 2.08058 10.9194C0.90848 9.74732 0.25 8.1576 0.25 6.5C0.25 4.8424 0.90848 3.25269 2.08058 2.08058C3.25269 0.90848 4.8424 0.25 6.5 0.25Z" fill="#BF9B9B" fill-opacity="0.75"/>
</svg>
