<svg width="21" height="21" viewBox="0 0 21 21" fill="#733D47" xmlns="http://www.w3.org/2000/svg">
<path d="M10.5 13.5625C9.68776 13.5625 8.9088 13.2398 8.33447 12.6655C7.76014 12.0912 7.43748 11.3122 7.43748 10.5C7.43748 9.68777 7.76014 8.90882 8.33447 8.33449C8.9088 7.76016 9.68776 7.4375 10.5 7.4375C11.3122 7.4375 12.0912 7.76016 12.6655 8.33449C13.2398 8.90882 13.5625 9.68777 13.5625 10.5C13.5625 11.3122 13.2398 12.0912 12.6655 12.6655C12.0912 13.2398 11.3122 13.5625 10.5 13.5625ZM17.0012 11.3488C17.0362 11.0688 17.0625 10.7887 17.0625 10.5C17.0625 10.2113 17.0362 9.9225 17.0012 9.625L18.8475 8.19875C19.0137 8.0675 19.0575 7.83125 18.9525 7.63875L17.2025 4.61125C17.0975 4.41875 16.8612 4.34 16.6687 4.41875L14.49 5.29375C14.035 4.9525 13.5625 4.655 13.0112 4.43625L12.6875 2.1175C12.6525 1.9075 12.4687 1.75 12.25 1.75H8.74998C8.53123 1.75 8.34748 1.9075 8.31248 2.1175L7.98873 4.43625C7.43748 4.655 6.96498 4.9525 6.50998 5.29375L4.33123 4.41875C4.13873 4.34 3.90248 4.41875 3.79748 4.61125L2.04748 7.63875C1.93373 7.83125 1.98623 8.0675 2.15248 8.19875L3.99873 9.625C3.96373 9.9225 3.93748 10.2113 3.93748 10.5C3.93748 10.7887 3.96373 11.0688 3.99873 11.3488L2.15248 12.8013C1.98623 12.9325 1.93373 13.1688 2.04748 13.3612L3.79748 16.3888C3.90248 16.5812 4.13873 16.6513 4.33123 16.5813L6.50998 15.6975C6.96498 16.0475 7.43748 16.345 7.98873 16.5638L8.31248 18.8825C8.34748 19.0925 8.53123 19.25 8.74998 19.25H12.25C12.4687 19.25 12.6525 19.0925 12.6875 18.8825L13.0112 16.5638C13.5625 16.3363 14.035 16.0475 14.49 15.6975L16.6687 16.5813C16.8612 16.6513 17.0975 16.5812 17.2025 16.3888L18.9525 13.3612C19.0575 13.1688 19.0137 12.9325 18.8475 12.8013L17.0012 11.3488Z" />
</svg>
