<svg width="21" height="21" viewBox="0 0 21 21" fill="none" xmlns="http://www.w3.org/2000/svg">
<path d="M5.25 1.75C4.27875 1.75 3.5 2.52875 3.5 3.5V17.5C3.5 17.9641 3.68437 18.4092 4.01256 18.7374C4.34075 19.0656 4.78587 19.25 5.25 19.25H8.75V17.5788L10.5788 15.75H5.25V14H12.3288L14.0788 12.25H5.25V10.5H15.8288L17.5 8.82875V7L12.25 1.75H5.25ZM11.375 3.0625L16.1875 7.875H11.375V3.0625ZM17.6312 11.375C17.5 11.375 17.3775 11.4187 17.2812 11.515L16.3888 12.4075L18.2175 14.2275L19.11 13.3438C19.2937 13.1512 19.2937 12.8363 19.11 12.6525L17.9725 11.515C17.8763 11.4187 17.7537 11.375 17.6312 11.375ZM15.8725 12.9237L10.5 18.305V20.125H12.32L17.7013 14.7438L15.8725 12.9237Z" />
</svg>
