<svg width="21" height="21" viewBox="0 0 21 21" fill="none" xmlns="http://www.w3.org/2000/svg">
<path d="M2.86125 1.75L1.75 2.86125L4.13875 5.25H3.5C3.26794 5.25 3.04538 5.34219 2.88128 5.50628C2.71719 5.67038 2.625 5.89294 2.625 6.125V14.875C2.625 15.1071 2.71719 15.3296 2.88128 15.4937C3.04538 15.6578 3.26794 15.75 3.5 15.75H14C14.175 15.75 14.3413 15.68 14.4725 15.5925L17.2638 18.375L18.375 17.2638L2.86125 1.75ZM18.375 5.6875L14.875 9.1875V6.125C14.875 5.89294 14.7828 5.67038 14.6187 5.50628C14.4546 5.34219 14.2321 5.25 14 5.25H8.5925L18.375 15.0325V5.6875Z" />
</svg>
