<svg width="21" height="21" viewBox="0 0 21 21" fill="none" xmlns="http://www.w3.org/2000/svg">
<path d="M14.875 9.1875V6.125C14.875 5.89294 14.7828 5.67038 14.6187 5.50628C14.4546 5.34219 14.2321 5.25 14 5.25H3.5C3.26794 5.25 3.04538 5.34219 2.88128 5.50628C2.71719 5.67038 2.625 5.89294 2.625 6.125V14.875C2.625 15.1071 2.71719 15.3296 2.88128 15.4937C3.04538 15.6578 3.26794 15.75 3.5 15.75H14C14.2321 15.75 14.4546 15.6578 14.6187 15.4937C14.7828 15.3296 14.875 15.1071 14.875 14.875V11.8125L18.375 15.3125V5.6875L14.875 9.1875Z" />
</svg>
