<svg width="50" height="46" viewBox="0 0 50 46" fill="none" xmlns="http://www.w3.org/2000/svg">
<mask id="mask0" mask-type="alpha" maskUnits="userSpaceOnUse" x="0" y="0" width="50" height="46">
<path fill-rule="evenodd" clip-rule="evenodd" d="M0 0.380859H50V45.619H0V0.380859Z" fill="white"/>
</mask>
<g mask="url(#mask0)">
<path fill-rule="evenodd" clip-rule="evenodd" d="M6.3817 1.074C4.18072 -0.589775 0.528787 0.922618 0.100319 3.68718C-0.352911 5.47703 0.743587 7.09867 1.5265 8.60285C4.0816 13.0226 6.51349 17.5097 9.10999 21.9046C14.8105 18.9177 19.8923 16.1156 25.0439 12.5779C18.8371 8.86395 12.5804 4.79639 6.3817 1.074Z" fill="#F8931D"/>
<path fill-rule="evenodd" clip-rule="evenodd" d="M25.0457 12.5483L41.0838 21.9745C37.1696 28.7694 33.0562 36.2163 29.1498 43.0113C28.2551 44.7511 26.298 46.0212 24.3406 45.5012C22.5177 45.1855 21.3801 43.5146 20.5017 42.0226C16.7048 35.3125 12.9156 28.6024 9.11035 21.9095L25.0457 12.5483Z" fill="#EF3E36"/>
<path fill-rule="evenodd" clip-rule="evenodd" d="M43.5195 1.08411C45.753 -0.604022 49.4582 0.930695 49.8929 3.7357C50.353 5.55188 49.2406 7.19733 48.446 8.7235L41.0845 21.9746L25.0464 12.5485C31.3447 8.77995 37.2301 4.86112 43.5195 1.08411Z" fill="#A01F62"/>
</g>
</svg>
