<svg width="21" height="21" viewBox="0 0 21 21" fill="none" xmlns="http://www.w3.org/2000/svg">
<path d="M17.5 14.875C17.9641 14.875 18.4092 14.6906 18.7374 14.3624C19.0656 14.0342 19.25 13.5891 19.25 13.125V3.5C19.25 3.03587 19.0656 2.59075 18.7374 2.26256C18.4092 1.93437 17.9641 1.75 17.5 1.75H8.2775C8.58375 2.28375 8.75 2.8875 8.75 3.5H17.5V13.125H9.625V14.875H17.5ZM13.125 6.125V7.875H7.875V19.25H6.125V14H4.375V19.25H2.625V12.25H1.3125V7.875C1.3125 7.41087 1.49687 6.96575 1.82506 6.63756C2.15325 6.30937 2.59837 6.125 3.0625 6.125H13.125ZM7 3.5C7 3.96413 6.81563 4.40925 6.48744 4.73744C6.15925 5.06563 5.71413 5.25 5.25 5.25C4.78587 5.25 4.34075 5.06563 4.01256 4.73744C3.68437 4.40925 3.5 3.96413 3.5 3.5C3.5 3.03587 3.68437 2.59075 4.01256 2.26256C4.34075 1.93437 4.78587 1.75 5.25 1.75C5.71413 1.75 6.15925 1.93437 6.48744 2.26256C6.81563 2.59075 7 3.03587 7 3.5Z" />
</svg>
