<svg width="32" height="18" viewBox="0 0 32 18" fill="none" xmlns="http://www.w3.org/2000/svg">
<path d="M20.2468 4.41517L16.3019 0.470328C15.6537 -0.156776 14.625 -0.156776 13.9768 0.470328L5.74756 8.69964L12.0175 14.9696L20.2468 6.74032C20.5611 6.42949 20.7396 6.00681 20.7432 5.56472C20.7414 5.12983 20.5621 4.7146 20.2468 4.41517Z" />
<path d="M15.3091 17.2163L9.8229 17.2163L11.4687 15.5443L5.1988 9.24823L2.74309 11.7039C2.11273 12.3609 2.11273 13.3981 2.74309 14.0551L5.87806 17.2162H0.391884C0.175465 17.2162 0 17.3917 0 17.6081C0 17.8245 0.175465 18 0.391884 18H15.3091C15.5255 18 15.701 17.8245 15.701 17.6081C15.701 17.3917 15.5255 17.2163 15.3091 17.2163Z" />
<path d="M25 10L28 13L31 10" stroke="#747474"/>
</svg>
