<svg width="15" height="11" viewBox="0 0 15 11" fill="none" xmlns="http://www.w3.org/2000/svg">
<path d="M0.259458 10.3047C0.107262 10.2728 0 10.1409 0 9.98868C0 4.73212 6.24003 3.61239 7.68952 3.42324V1.01129C7.68952 0.892436 7.75475 0.783724 7.85983 0.726469C7.96637 0.671389 8.09248 0.679361 8.19032 0.743863L14.8594 5.23292C14.9471 5.29235 15 5.39091 15 5.50035C15 5.60689 14.9471 5.70618 14.8594 5.76561L8.19394 10.2539C8.09465 10.3192 7.9671 10.3264 7.86273 10.2706C7.75692 10.2141 7.69169 10.1046 7.69169 9.98506V7.39048C6.64299 7.397 5.77475 7.44338 5.05218 7.53035C1.58429 7.94128 0.657342 10.0235 0.619655 10.1126C0.568198 10.2322 0.45079 10.309 0.322511 10.309C0.300768 10.3105 0.279026 10.309 0.259458 10.3047Z" fill="#797979"/>
</svg>
