<svg width="17" height="17" viewBox="0 0 17 17" fill="none" xmlns="http://www.w3.org/2000/svg">
<path d="M0 0L13.6237 0V3.51624L11.4992 3.51015V2.6453C11.4992 2.20302 11.1555 1.84101 10.7151 1.81701L8.00397 1.81701L8.00397 13.4973C8.02292 13.9979 8.42844 14.389 8.93014 14.389H9.68197L9.68816 16.3218H3.939L3.94538 14.389H4.69702C5.19138 14.389 5.59605 14.0045 5.62252 13.512L5.62252 1.81692L2.90886 1.81692C2.46839 1.84091 2.12475 2.20302 2.12475 2.6452V3.51005L0 3.51624L0 0ZM15.5718 16.3495H17L17 0L15.5718 0L15.5718 16.3495Z" fill=""/>
</svg>
