<svg width="14" height="9" viewBox="0 0 14 9" fill="none" xmlns="http://www.w3.org/2000/svg">
<path d="M13.7003 8.97749C13.5801 8.97749 13.4699 8.90873 13.4227 8.7959C13.3881 8.71403 12.5221 6.77168 9.28452 6.38699C8.61014 6.30512 7.80244 6.26313 6.82156 6.25579V8.67677C6.82156 8.78855 6.76121 8.88984 6.66202 8.94337C6.56335 8.9948 6.44527 8.98746 6.35343 8.92605L0.133303 4.73907C0.0493327 4.68291 0 4.58845 0 4.48926C0 4.38902 0.0493327 4.2977 0.133303 4.23892L6.35605 0.0514089C6.44789 -0.0120939 6.56493 -0.0162923 6.66464 0.0361893C6.76436 0.0897206 6.82366 0.19101 6.82366 0.299647V2.55268C8.17664 2.72902 14 3.77551 14 8.67939C14 8.82162 13.8998 8.946 13.7591 8.97434C13.7397 8.97749 13.7192 8.97749 13.7003 8.97749Z" fill="#797979"/>
</svg>
